<?xml version="1.0" standalone="no"?>
<!DOCTYPE svg PUBLIC "-//W3C//DTD SVG 20010904//EN"
 "http://www.w3.org/TR/2001/REC-SVG-20010904/DTD/svg10.dtd">
<svg version="1.0" xmlns="http://www.w3.org/2000/svg"
 width="1000.000000pt" height="1500.000000pt" viewBox="0 0 1000.000000 1500.000000"
 preserveAspectRatio="xMidYMid meet">

<g transform="translate(0.000000,1500.000000) scale(0.100000,-0.100000)"
fill="red" stroke="none">
<path d="M0 7500 l0 -7500 5000 0 5000 0 0 7500 0 7500 -5000 0 -5000 0 0
-7500z m6945 7028 c-27 -530 -127 -915 -310 -1199 -118 -183 -343 -354 -590
-448 -191 -73 -466 -140 -820 -201 -99 -17 -190 -33 -202 -35 l-23 -5 0 -259
0 -258 63 -7 c663 -72 1415 -259 1912 -476 61 -27 187 -81 280 -120 190 -80
310 -141 456 -232 87 -55 102 -68 128 -117 41 -80 77 -186 103 -304 39 -184
27 -485 -28 -674 -8 -29 -16 -53 -18 -53 -2 0 -84 46 -182 102 -99 55 -240
129 -314 163 -74 35 -184 86 -245 115 -663 315 -1154 496 -1640 604 -160 35
-449 86 -492 86 l-23 0 0 -605 0 -605 -77 0 c-99 0 -271 -16 -393 -36 -124
-21 -364 -82 -368 -94 -2 -5 -10 -6 -18 -3 -8 3 -14 0 -14 -6 0 -6 -3 -10 -7
-9 -5 0 -17 -3 -28 -7 -11 -5 -56 -23 -100 -40 -86 -35 -197 -86 -205 -96 -5
-6 -106 -65 -152 -88 -15 -8 -38 -24 -50 -35 -12 -12 -26 -20 -30 -19 -5 2 -8
-1 -8 -6 0 -5 -19 -20 -42 -34 -24 -14 -59 -39 -78 -55 l-35 -30 140 34 c509
125 1112 217 2010 308 431 44 585 54 1030 66 467 13 575 21 915 66 76 10 229
56 307 93 l81 39 -34 -126 c-113 -428 -291 -824 -485 -1078 -60 -79 -76 -95
-122 -113 -117 -47 -190 -55 -547 -57 -296 -2 -359 -5 -540 -28 -1351 -174
-2604 -508 -3582 -955 l-68 -31 0 -158 c0 -172 12 -325 36 -472 21 -124 82
-364 94 -368 5 -2 6 -10 3 -18 -3 -8 0 -14 6 -14 6 0 10 -3 9 -7 0 -5 3 -17 7
-28 5 -11 23 -56 40 -100 35 -86 86 -197 96 -205 6 -5 64 -106 89 -153 8 -16
25 -39 38 -53 14 -13 22 -24 18 -24 -3 0 1 -8 10 -17 8 -10 34 -45 58 -78 103
-146 345 -384 484 -478 31 -22 60 -44 64 -50 4 -7 8 -8 8 -3 0 5 11 -2 24 -16
14 -13 37 -30 53 -38 47 -25 148 -83 153 -89 8 -10 119 -61 205 -96 44 -17 89
-35 100 -40 11 -4 23 -7 28 -7 4 1 7 -3 7 -9 0 -6 6 -9 14 -6 8 3 16 2 18 -3
4 -12 244 -73 368 -94 122 -20 294 -36 393 -36 l77 0 0 -2002 0 -2001 -172 6
c-1470 56 -2795 908 -3461 2225 -228 449 -374 949 -416 1417 -26 290 -28 349
-20 550 13 303 32 468 85 725 l25 126 -40 71 c-22 39 -60 115 -84 169 -44 98
-117 312 -117 344 0 10 37 34 113 69 114 55 166 81 342 171 86 43 101 55 108
81 5 17 7 33 5 34 -2 2 -133 -62 -291 -142 -159 -79 -291 -142 -293 -140 -12
12 -34 237 -34 349 0 394 121 778 380 1203 104 171 146 220 248 292 121 86
216 148 326 213 46 27 87 58 90 67 3 10 132 569 286 1241 l281 1224 -41 79
c-23 44 -50 105 -61 136 l-19 56 37 46 c21 25 72 81 115 124 63 63 78 84 78
108 l0 30 -46 -38 c-26 -20 -82 -76 -125 -122 -43 -47 -81 -82 -85 -79 -11 11
-7 368 6 478 16 144 54 351 92 494 31 119 32 120 97 188 123 132 332 270 570
378 119 54 138 66 203 133 204 205 419 360 674 487 82 40 158 77 169 81 164
66 244 91 450 139 88 21 336 50 428 50 l97 0 0 -173 0 -173 118 18 c64 10 223
31 353 47 249 32 328 51 534 133 366 146 700 397 882 664 31 46 59 84 61 84 2
0 1 -60 -3 -132z m499 -8132 c413 -185 958 -486 1191 -658 324 -239 561 -656
705 -1238 62 -252 107 -545 126 -825 l7 -100 -79 105 c-149 199 -382 414 -629
580 -634 425 -1528 708 -2667 846 -126 15 -228 31 -228 36 0 4 3 7 8 6 4 0 16
3 27 7 11 5 56 23 100 40 86 35 197 86 205 96 5 6 106 64 153 89 16 8 39 25
53 38 13 14 24 22 24 18 0 -3 8 1 18 10 9 8 44 34 77 58 146 103 384 345 478
484 22 31 44 60 50 64 7 4 8 8 3 8 -5 0 2 11 16 24 13 14 30 37 38 53 25 47
83 148 89 153 3 3 24 42 46 88 21 45 40 82 42 82 2 0 68 -29 147 -64z"/>
<path d="M6717 14347 l-47 -56 2 -192 3 -192 48 44 48 44 -3 204 -3 204 -48
-56z" />
<path d="M6248 14014 l-48 -24 0 -275 0 -274 50 21 50 21 0 278 c0 154 -1 279
-2 279 -2 -1 -24 -12 -50 -26z"/>
<path d="M5773 13818 l-43 -9 0 -165 c0 -108 4 -164 11 -164 5 0 30 5 55 11
l44 11 0 164 c0 125 -3 164 -12 163 -7 -1 -32 -5 -55 -11z"/>
<path d="M5355 13744 c-5 -1 -27 -5 -47 -9 l-38 -6 0 -258 0 -258 47 8 c25 5
48 11 50 13 9 9 -3 512 -12 510z"/>
<path d="M4865 13663 c-72 -15 -65 5 -65 -179 l0 -166 31 6 c17 3 40 6 50 6
18 0 19 10 19 170 0 94 -3 169 -7 169 -5 -1 -17 -3 -28 -6z"/>
<path d="M4395 13575 c-5 -2 -22 -6 -37 -9 l-28 -6 0 -241 0 -241 31 6 c17 3
40 6 50 6 18 0 19 12 19 245 0 248 0 252 -35 240z"/>
<path d="M3910 13466 l-45 -12 -3 -152 c-3 -167 -6 -160 61 -141 l37 10 0 154
c0 85 -1 155 -2 154 -2 -1 -23 -6 -48 -13z"/>
<path d="M3433 13323 l-43 -15 0 -230 0 -230 25 6 c13 3 36 11 50 16 l25 10 0
230 c0 126 -3 230 -7 229 -5 0 -27 -7 -50 -16z"/>
<path d="M2963 13132 l-53 -26 0 -132 0 -132 55 21 55 22 0 138 c0 75 -1 137
-2 136 -2 0 -27 -12 -55 -27z"/>
<path d="M2491 12828 l-51 -42 0 -204 0 -204 33 22 c17 11 42 26 55 32 22 11
22 13 22 225 0 117 -2 213 -4 213 -2 0 -26 -19 -55 -42z"/>
<path d="M7300 9500 l0 -350 48 18 47 18 3 332 2 332 -50 0 -50 0 0 -350z"/>
<path d="M6320 9610 l0 -210 50 0 50 0 0 210 0 210 -50 0 -50 0 0 -210z"/>
<path d="M5358 9743 c-17 -4 -18 -34 -18 -439 l0 -434 50 0 50 0 0 440 0 440
-32 -1 c-18 -1 -41 -3 -50 -6z"/>
<path d="M4425 9623 c-72 -15 -65 8 -65 -204 l0 -191 43 7 c23 4 45 9 50 12 4
2 7 89 7 194 0 104 -3 188 -7 188 -5 -1 -17 -3 -28 -6z"/>
<path d="M3418 9418 l-38 -10 0 -407 0 -408 50 11 50 10 0 408 c0 320 -3 408
-12 407 -7 -1 -30 -6 -50 -11z"/>
<path d="M2448 9108 l-48 -20 0 -224 c0 -123 2 -224 4 -224 2 0 25 9 50 20
l46 19 0 226 c0 124 -1 225 -2 224 -2 0 -24 -10 -50 -21z"/>
<path d="M1482 8595 l-62 -45 0 -354 0 -354 65 35 65 34 0 365 c0 200 -1 364
-3 364 -2 0 -31 -20 -65 -45z"/>
</g>
</svg>
